<?xml version="1.0" encoding="UTF-8"?>
<svg width="29px" height="25px" viewBox="0 0 29 25" version="1.1" xmlns="http://www.w3.org/2000/svg" xmlns:xlink="http://www.w3.org/1999/xlink">
    <!-- Generator: Sketch 49.3 (51167) - http://www.bohemiancoding.com/sketch -->
    <title>arrow</title>
    <desc>Created with Sketch.</desc>
    <defs></defs>
    <g id="Page-1" stroke="none" stroke-width="1" fill="none" fill-rule="evenodd">
        <g id="Home_1" transform="translate(-61.000000, -737.000000)" fill="#FFFFFF">
            <g id="arrow+text" transform="translate(61.000000, 737.000000)">
                <path d="M25.4759753,16.6671169 L19.9851198,11.1972992 L21.0104247,10.1759227 L28.1875586,17.325558 L21.0104247,24.4751931 L19.9851198,23.4538168 L25.3258148,18.1335842 C25.2847992,18.1374617 25.2429464,18.1413431 25.2002676,18.1452221 C21.817396,18.4526892 18.1000098,18.329398 14.5785488,17.4610216 C12.0606818,16.8401268 9.83590389,15.8683753 7.98827384,14.4928726 C6.21428664,13.1721945 4.73751282,11.595784 3.53255028,9.81908769 C2.20728334,7.8650046 1.27600277,5.77495503 0.668795782,3.68470102 C0.455959996,2.9520335 0.298625586,2.27047994 0.188323724,1.65673772 C0.121163885,1.28304662 0.084326722,1.01100591 0.069474024,0.857314324 L0,0.138415708 L1.44332721,0 L1.51280124,0.718898614 C1.52400097,0.834790404 1.5556096,1.06821856 1.61562991,1.40218387 C1.71729495,1.967869 1.86334369,2.60053448 2.0616483,3.28317978 C2.62912814,5.23667669 3.49965489,7.19037801 4.73404339,9.01046244 C5.85093669,10.6573022 7.21670477,12.1152175 8.85628935,13.3358369 C10.5359815,14.5863153 12.585426,15.4814837 14.9269709,16.0588981 C18.2671828,16.8825794 21.8328651,17.0008389 25.0685184,16.7067526 C25.2153332,16.6934087 25.3513349,16.680096 25.4759753,16.6671169 L25.4759753,16.6671169 L25.4759753,16.6671169 Z" id="arrow"></path>
            </g>
        </g>
    </g>
</svg>