<?xml version="1.0" encoding="UTF-8"?>
<svg width="40px" height="40px" viewBox="0 0 40 40" version="1.1" xmlns="http://www.w3.org/2000/svg" xmlns:xlink="http://www.w3.org/1999/xlink">
    <!-- Generator: Sketch 49.3 (51167) - http://www.bohemiancoding.com/sketch -->
    <title>Shape</title>
    <desc>Created with Sketch.</desc>
    <defs></defs>
    <g id="Page-1" stroke="none" stroke-width="1" fill="none" fill-rule="evenodd">
        <g id="Home_1" transform="translate(-860.000000, -2537.000000)" fill="#FF8581">
            <g id="ПРОГРАММА" transform="translate(0.000000, 2084.000000)">
                <g id="Ресторан" transform="translate(641.000000, 408.000000)">
                    <g id="Bitmap">
                        <g id="noun_275347_cc" transform="translate(219.000000, 45.000000)">
                            <g id="Group">
                                <path d="M3.24746973,0 C3.04532449,0 2.84317926,0.0505363084 2.69157033,0.252681542 L0.215291223,2.72896065 C0.0636822975,2.88056958 -0.0373903193,3.08271481 0.0131459891,3.28486005 C0.0131459891,3.48700528 0.114218606,3.68915051 0.265827531,3.84075944 L3.24746973,6.41811117 C3.39907865,6.51918378 3.55068758,6.56972009 3.75283281,6.56972009 C3.95497804,6.56972009 4.15712328,6.51918378 4.3087322,6.36757486 L6.38072085,4.29558621 C6.63340239,3.99236836 6.6839387,3.53754159 6.43125715,3.23432374 L3.80336912,0.30321785 C3.65176019,0.101072617 3.44961496,0 3.24746973,0 L3.24746973,0 L3.24746973,0 Z M3.14639711,1.92037972 L4.71302267,3.73968682 L3.65176019,4.8009493 L1.83245309,3.28486005 L3.14639711,1.92037972 L3.14639711,1.92037972 L3.14639711,1.92037972 Z M13.1525862,2.93110589 C12.9504409,2.93110589 12.7482957,2.98164219 12.5966868,3.13325112 C10.7268434,4.90202191 10.6763071,7.8331278 12.4450779,9.70297121 C12.5966868,9.85458014 12.798832,9.95565275 13.0009772,9.95565275 C13.2031225,9.95565275 13.3547314,9.90511644 13.5568766,9.75350752 C13.8600945,9.45028967 13.8600945,8.94492658 13.6074129,8.64170873 C12.3945415,7.37830102 12.4450779,5.407385 13.7084856,4.2450499 C14.0117034,3.94183205 14.0622397,3.48700528 13.7590219,3.18378743 C13.5568766,2.98164219 13.3547314,2.93110589 13.1525862,2.93110589 L13.1525862,2.93110589 L13.1525862,2.93110589 Z M7.23983809,6.46864747 C7.03769285,6.46864747 6.83554762,6.56972009 6.6839387,6.72132902 C6.38072085,7.02454687 6.38072085,7.47937364 6.6839387,7.78259149 L10.5752344,11.6738872 C10.7268434,11.8254962 10.9289886,11.8760325 11.1311338,11.8760325 C11.3332791,11.8760325 11.5354243,11.8254962 11.6870332,11.6738872 C11.9902511,11.3706694 11.9902511,10.8653063 11.6870332,10.5620885 L7.79573748,6.67079271 C7.59359225,6.56972009 7.39144701,6.46864747 7.23983809,6.46864747 L7.23983809,6.46864747 L7.23983809,6.46864747 Z M6.33018454,11.2190605 C5.11731314,11.2695968 3.95497804,11.7244235 3.0958608,12.6340771 C2.79264295,12.9372949 2.79264295,13.442658 3.0958608,13.6953396 C3.24746973,13.8469485 3.44961496,13.8974848 3.65176019,13.8974848 C3.85390543,13.8974848 4.05605066,13.8469485 4.20765959,13.6448033 C5.36999468,12.3813956 7.34091071,12.3308592 8.60431841,13.5437306 C8.90753627,13.8469485 9.41289935,13.8469485 9.66558089,13.5437306 C9.96879874,13.2405128 9.96879874,12.7351497 9.66558089,12.4319319 C8.70539103,11.6233509 7.54305594,11.1685242 6.33018454,11.2190605 L6.33018454,11.2190605 L6.33018454,11.2190605 Z M14.769748,11.3201331 C14.3654576,11.3201331 14.0117034,11.471742 13.7084856,11.7749599 L11.6870332,13.7964122 C11.1311338,14.3523116 11.1311338,15.2114288 11.5859606,15.7673282 L12.2934689,16.6264455 C12.5461505,16.9296633 12.9504409,17.1318085 13.3547314,17.1318085 L13.6074129,17.1318085 C14.8202843,18.4457526 17.8019265,21.7811489 19.0653343,24.6617185 C20.7835687,28.5530142 23.1587752,30.978757 23.2598478,31.0798297 L31.7499477,39.5699295 C32.0531655,39.822611 32.4069197,40.0247562 32.8112101,40.0247562 C33.2155006,40.0247562 33.5692548,39.8731473 33.8724726,39.5699295 L39.5830755,33.9098629 C40.1389748,33.3539635 40.1389748,32.3937737 39.5830755,31.8378743 L31.0424393,23.2972382 C30.9413667,23.1961655 28.5156239,20.8209591 24.6243282,19.1027246 L24.6243282,19.1027246 C21.7437586,17.8393169 18.4083622,14.908211 17.0944182,13.6448033 L17.0944182,13.3921217 C17.0438819,12.9878313 16.8417367,12.5835408 16.5385188,12.3308592 L15.6794016,11.6233509 C15.42672,11.4212057 15.0729659,11.3201331 14.769748,11.3201331 L14.769748,11.3201331 L14.769748,11.3201331 Z M14.769748,12.8867586 L15.5277927,13.5437306 C15.3761837,13.8469485 15.42672,14.251239 15.6794016,14.4533842 L15.7299379,14.5039205 C17.0944182,15.8178645 20.6319598,19.001652 23.8662835,20.4672049 L23.7146746,23.7520649 L20.4298146,23.9036739 C18.9642616,20.6693501 15.7804742,17.1318085 14.4665302,15.7673282 L14.4159939,15.7167919 C14.1633123,15.4641104 13.7590219,15.4135741 13.455804,15.565183 L12.798832,14.8071384 L14.769748,12.8867586 L14.769748,12.8867586 L14.769748,12.8867586 Z M25.3823728,21.1747132 C27.2016799,22.1349031 28.5156239,23.1456292 29.2736685,23.7520649 L23.7146746,29.3110589 C23.0577026,28.5530142 22.0469764,27.1885339 21.1373229,25.4197631 L24.4727192,25.2681542 C24.8770097,25.2681542 25.1802276,24.9144 25.2307639,24.5101096 L25.3823728,21.1747132 L25.3823728,21.1747132 L25.3823728,21.1747132 Z M30.3854673,24.8133274 L34.5799809,29.007841 L29.020987,34.6173712 L24.8264734,30.4228576 L30.3854673,24.8133274 L30.3854673,24.8133274 L30.3854673,24.8133274 Z M35.6917797,30.1196398 L38.4207404,32.8486005 L32.8112101,38.4581307 L31.143512,36.7904325 L31.143512,36.7904325 L31.143512,36.7904325 L30.0822495,35.72917 L35.6917797,30.1196398 L35.6917797,30.1196398 L35.6917797,30.1196398 Z" id="Shape"></path>
                            </g>
                        </g>
                    </g>
                </g>
            </g>
        </g>
    </g>
</svg>